<svg width="60" height="19" viewBox="0 0 60 19" fill="none" xmlns="http://www.w3.org/2000/svg">
<path d="M7.30598 12.1969H0V10.5442H7.30598V12.1969ZM19.3756 5.12475C19.3756 4.56102 19.2819 4.0699 19.0946 3.65138C18.9161 3.23286 18.6664 2.88694 18.3452 2.61362C18.033 2.33176 17.6628 2.1225 17.2346 1.98584C16.8064 1.84918 16.3426 1.78085 15.843 1.78085C15.4148 1.78085 14.9955 1.83637 14.5852 1.9474C14.1748 2.05844 13.7734 2.21218 13.3809 2.40863C12.9973 2.60508 12.6227 2.83996 12.2569 3.11328C11.9001 3.3866 11.5656 3.68982 11.2533 4.02293V1.76804C11.8689 1.19577 12.5558 0.760172 13.314 0.461228C14.0812 0.153743 15.0134 0 16.1106 0C16.8956 0 17.6227 0.111036 18.2917 0.333109C18.9608 0.54664 19.5406 0.862666 20.0312 1.28119C20.5219 1.69971 20.9054 2.21645 21.182 2.83142C21.4674 3.44639 21.6102 4.15105 21.6102 4.94538C21.6102 5.67139 21.521 6.32906 21.3426 6.91841C21.1731 7.50775 20.9099 8.06294 20.5531 8.58395C20.2052 9.10497 19.7636 9.60463 19.2284 10.0829C18.6931 10.5612 18.0642 11.0481 17.3417 11.5435C16.4407 12.1585 15.6958 12.6838 15.107 13.1194C14.5272 13.555 14.0633 13.9649 13.7154 14.3493C13.3765 14.7251 13.1356 15.1052 12.9929 15.4895C12.8591 15.8654 12.7922 16.301 12.7922 16.7964H22.3461V18.6797H10.504V17.7701C10.504 16.9843 10.5932 16.2924 10.7716 15.6945C10.95 15.0967 11.2444 14.5287 11.6548 13.9906C12.0651 13.4525 12.6004 12.9144 13.2605 12.3763C13.9295 11.8382 14.7458 11.2317 15.7092 10.557C16.405 10.0787 16.9848 9.62171 17.4487 9.18611C17.9215 8.75051 18.3006 8.3149 18.5861 7.8793C18.8715 7.4437 19.0723 7.00382 19.1882 6.55968C19.3131 6.10699 19.3756 5.62868 19.3756 5.12475ZM37.4665 9.41672C37.4665 10.9541 37.3194 12.3165 37.025 13.5037C36.7395 14.6909 36.3203 15.6945 35.7672 16.5145C35.223 17.3259 34.5495 17.9452 33.7467 18.3722C32.9527 18.7907 32.0473 19 31.0303 19C30.0669 19 29.2061 18.7993 28.4478 18.3978C27.6985 17.9879 27.0651 17.3942 26.5477 16.617C26.0303 15.8397 25.6378 14.8874 25.3702 13.7599C25.1026 12.624 24.9688 11.3257 24.9688 9.86514C24.9688 8.25938 25.107 6.84154 25.3836 5.6116C25.669 4.38166 26.0839 3.35244 26.628 2.52394C27.1722 1.6869 27.8457 1.05911 28.6485 0.640594C29.4603 0.213531 30.388 0 31.4318 0C35.455 0 37.4665 3.13891 37.4665 9.41672ZM35.2186 9.62171C35.2186 4.39447 33.9206 1.78085 31.3247 1.78085C28.5861 1.78085 27.2168 4.44145 27.2168 9.76264C27.2168 14.7251 28.5593 17.2063 31.2444 17.2063C33.8938 17.2063 35.2186 14.6781 35.2186 9.62171ZM43.9964 9.51922C42.6762 9.51922 41.6236 9.10497 40.8385 8.27647C40.0535 7.43942 39.661 6.32479 39.661 4.93257C39.661 3.41223 40.0758 2.21645 40.9054 1.34525C41.7351 0.465498 42.8546 0.0256243 44.2641 0.0256243C45.6289 0.0256243 46.686 0.431333 47.4353 1.24275C48.1936 2.05417 48.5727 3.19443 48.5727 4.66352C48.5727 6.13261 48.149 7.31131 47.3015 8.1996C46.463 9.07934 45.3613 9.51922 43.9964 9.51922ZM44.1838 1.43493C43.3363 1.43493 42.6673 1.73814 42.1766 2.34457C41.686 2.94246 41.4407 3.76669 41.4407 4.81726C41.4407 5.85075 41.6815 6.6579 42.1632 7.23871C42.645 7.81097 43.3006 8.0971 44.1302 8.0971C44.9688 8.0971 45.6244 7.79816 46.0972 7.20027C46.57 6.60238 46.8064 5.77388 46.8064 4.71477C46.8064 3.68128 46.57 2.8784 46.0972 2.30614C45.6334 1.72533 44.9955 1.43493 44.1838 1.43493ZM56.8421 0.307485L44.5317 18.8078H42.6182L54.9153 0.307485H56.8421ZM55.4237 18.9616C54.1035 18.9616 53.0509 18.543 52.2658 17.706C51.4808 16.869 51.0883 15.7586 51.0883 14.3749C51.0883 12.8546 51.5076 11.6545 52.3461 10.7748C53.1847 9.88649 54.2997 9.44235 55.6913 9.44235C57.0473 9.44235 58.1044 9.85233 58.8626 10.6723C59.6209 11.4922 60 12.641 60 14.1187C60 15.5792 59.5763 16.7537 58.7288 17.6419C57.8903 18.5217 56.7886 18.9616 55.4237 18.9616ZM55.6111 10.8901C54.7547 10.8901 54.0812 11.189 53.5905 11.7869C53.1088 12.3848 52.868 13.2133 52.868 14.2724C52.868 15.2888 53.1088 16.0874 53.5905 16.6682C54.0723 17.2405 54.7279 17.5266 55.5575 17.5266C56.3961 17.5266 57.0517 17.2277 57.5245 16.6298C57.9973 16.0234 58.2337 15.1949 58.2337 14.1443C58.2337 13.1023 57.9973 12.2994 57.5245 11.7357C57.0607 11.1719 56.4228 10.8901 55.6111 10.8901Z" fill="#CEAC1D"/>
</svg>
