<svg width="51" height="47" viewBox="0 0 51 47" fill="none" xmlns="http://www.w3.org/2000/svg">
<g filter="url(#filter0_d)">
<path d="M22.3039 5.83393L23.424 6.98117L24.5421 5.83393C25.7623 4.58448 28.5553 2.36926 31.9032 1.43478C35.1363 0.533678 38.8826 0.804845 42.4536 4.45933C46.033 8.12216 46.3125 11.9915 45.4198 15.3373C44.502 18.7832 42.3285 21.6492 41.1103 22.8965L30.6996 33.5534L24.8654 39.5253L23.424 41L21.9827 39.5253L16.1484 33.5534L5.73981 22.8965C4.51957 21.6492 2.34815 18.7832 1.42827 15.3393C0.537596 11.9915 0.817106 8.12007 4.39233 4.45933C7.96338 0.804845 11.7117 0.533678 14.9428 1.43478C18.2906 2.36926 21.0836 4.58448 22.3039 5.83393V5.83393Z" stroke="black" stroke-width="2"/>
</g>
<defs>
<filter id="filter0_d" x="0.000732422" y="-2.28882e-05" width="50.8479" height="46.4307" filterUnits="userSpaceOnUse" color-interpolation-filters="sRGB">
<feFlood flood-opacity="0" result="BackgroundImageFix"/>
<feColorMatrix in="SourceAlpha" type="matrix" values="0 0 0 0 0 0 0 0 0 0 0 0 0 0 0 0 0 0 127 0"/>
<feOffset dx="2" dy="2"/>
<feGaussianBlur stdDeviation="1"/>
<feColorMatrix type="matrix" values="0 0 0 0 0 0 0 0 0 0 0 0 0 0 0 0 0 0 0.25 0"/>
<feBlend mode="normal" in2="BackgroundImageFix" result="effect1_dropShadow"/>
<feBlend mode="normal" in="SourceGraphic" in2="effect1_dropShadow" result="shape"/>
</filter>
</defs>
</svg>
